<svg xmlns="http://www.w3.org/2000/svg" viewBox="0 0 500 500" shape-rendering="crispEdges">
  <rect width="500" height="500" fill="#103c2b"/>
  <rect x="60" y="380" width="380" height="120" fill="#193d34"/>
  <rect x="90" y="380" width="55" height="120" fill="#244e43"/>
  <rect x="355" y="380" width="55" height="120" fill="#244e43"/>
  <rect x="170" y="374" width="160" height="126" fill="#e7e7df"/>
  <rect x="225" y="374" width="50" height="126" fill="#214a3d"/>
  <rect x="235" y="400" width="30" height="26" fill="#76d8a3"/>
  <rect x="225" y="426" width="50" height="18" fill="#e7e5d6"/>
  <rect x="88" y="142" width="72" height="68" fill="#202b2d"/>
  <rect x="340" y="142" width="72" height="68" fill="#202b2d"/>
  <rect x="108" y="160" width="32" height="30" fill="#a8b9af"/>
  <rect x="360" y="160" width="32" height="30" fill="#a8b9af"/>
  <rect x="100" y="160" width="300" height="220" fill="#53605d"/>
  <rect x="120" y="180" width="260" height="180" fill="#aeb8b0"/>
  <rect x="135" y="190" width="230" height="42" fill="#6a7872"/>
  <rect x="120" y="230" width="260" height="70" fill="#172229"/>
  <rect x="145" y="248" width="88" height="52" fill="#2d3a3d"/>
  <rect x="267" y="248" width="88" height="52" fill="#2d3a3d"/>
  <rect x="165" y="252" width="44" height="40" fill="#f5f6f1"/>
  <rect x="291" y="252" width="44" height="40" fill="#f5f6f1"/>
  <rect x="181" y="266" width="18" height="26" fill="#151a18"/>
  <rect x="301" y="266" width="18" height="26" fill="#151a18"/>
  <rect x="190" y="300" width="120" height="60" fill="#d8dfd9"/>
  <rect x="225" y="310" width="50" height="26" fill="#263033"/>
  <rect x="210" y="342" width="80" height="12" fill="#86938d"/>
  <rect x="130" y="94" width="240" height="56" fill="#2d6b50"/>
  <rect x="110" y="116" width="280" height="34" fill="#2d6b50"/>
  <rect x="140" y="72" width="28" height="22" fill="#2d6b50"/>
  <rect x="210" y="62" width="28" height="32" fill="#2d6b50"/>
  <rect x="280" y="72" width="28" height="22" fill="#2d6b50"/>
  <rect x="100" y="180" width="20" height="100" fill="#3e4b49"/>
  <rect x="380" y="180" width="20" height="100" fill="#3e4b49"/>
  <rect x="210" y="360" width="80" height="28" fill="#6c7a75"/>
</svg>
